<?xml version="1.0" standalone="no"?>
<!DOCTYPE svg PUBLIC "-//W3C//DTD SVG 20010904//EN"
 "http://www.w3.org/TR/2001/REC-SVG-20010904/DTD/svg10.dtd">
<svg version="1.0" xmlns="http://www.w3.org/2000/svg"
 width="512.000000pt" height="512.000000pt" viewBox="0 0 512.000000 512.000000"
 preserveAspectRatio="xMidYMid meet">
<metadata>
Created by potrace 1.11, written by Peter Selinger 2001-2013
</metadata>
<g transform="translate(0.000000,512.000000) scale(0.100000,-0.100000)"
fill="#000000" stroke="none">
<path d="M2507 5014 c-1 -1 -51 -4 -112 -8 -60 -3 -119 -8 -130 -10 -11 -2
-42 -7 -70 -10 -326 -46 -674 -178 -965 -368 -207 -135 -437 -343 -579 -525
-36 -46 -76 -87 -93 -94 -52 -21 -143 -85 -195 -135 -53 -52 -116 -171 -183
-344 -17 -47 -36 -94 -41 -105 -38 -92 -110 -420 -126 -580 -10 -100 -10 -468
1 -555 13 -113 36 -241 66 -366 54 -221 170 -512 241 -601 44 -55 140 -136
206 -174 32 -18 73 -56 109 -102 117 -144 271 -300 384 -387 25 -19 47 -37 50
-41 10 -13 246 -166 300 -195 30 -16 57 -32 58 -36 2 -5 8 -8 14 -8 5 0 42
-15 81 -34 150 -70 370 -146 497 -170 14 -2 61 -11 105 -20 44 -8 105 -18 135
-21 30 -3 73 -8 95 -10 51 -6 356 -6 414 -1 45 5 121 14 176 22 70 10 262 55
350 83 312 97 582 248 873 486 32 26 221 217 252 255 19 23 43 52 54 64 10 11
29 35 43 53 14 18 44 41 67 52 62 30 167 121 220 190 25 32 46 64 46 68 0 5
14 38 31 74 17 35 44 100 60 144 16 44 34 89 39 100 37 76 107 406 129 605 9
88 7 497 -3 539 -3 14 -8 47 -11 75 -18 165 -88 430 -164 619 -69 172 -122
268 -180 327 -58 60 -172 140 -200 140 -9 1 -43 35 -76 77 -120 153 -356 376
-500 473 -27 19 -51 37 -53 42 -2 4 -8 8 -13 8 -4 0 -39 20 -76 44 -86 55
-273 149 -381 191 -45 17 -79 35 -75 40 5 4 2 5 -5 1 -7 -4 -39 2 -71 13 -32
11 -69 23 -82 25 -13 3 -51 13 -84 21 -33 9 -73 18 -90 21 -16 3 -57 10 -90
16 -33 6 -73 12 -90 14 -80 9 -352 23 -358 18z m158 -348 c63 -30 123 -81 179
-154 45 -60 146 -231 146 -249 0 -6 -15 -8 -37 -6 -54 7 -685 7 -760 0 -39 -3
-63 -1 -63 5 0 13 63 128 109 198 53 82 151 176 213 205 70 33 145 33 213 1z
m-750 -124 c-32 -55 -120 -235 -144 -294 -8 -21 -18 -28 -38 -29 -16 0 -35 -2
-44 -4 -8 -1 -42 -6 -75 -9 -83 -10 -146 -18 -169 -22 -11 -2 -40 -7 -65 -10
-25 -3 -54 -8 -65 -10 -11 -2 -40 -7 -65 -10 -25 -3 -63 -10 -85 -14 -22 -5
-41 -8 -42 -6 -6 6 149 128 230 182 45 30 91 62 102 70 63 48 433 211 482 214
7 0 -2 -25 -22 -58z m1362 27 c239 -84 513 -247 702 -417 22 -20 23 -22 6 -18
-11 3 -63 12 -115 21 -150 25 -183 30 -341 50 -186 23 -172 18 -199 83 -30 73
-105 224 -136 274 -13 21 -20 38 -15 38 5 0 49 -14 98 -31z m-247 -742 c19 -2
80 -8 135 -12 55 -4 107 -9 115 -10 8 -1 49 -6 90 -10 41 -4 82 -9 90 -10 8
-1 40 -6 70 -10 30 -4 64 -9 75 -11 11 -3 38 -7 60 -10 78 -10 368 -63 465
-85 25 -6 54 -12 65 -15 11 -2 41 -8 66 -14 26 -6 53 -13 60 -14 108 -21 118
-30 173 -148 98 -210 158 -437 191 -711 7 -60 7 -320 0 -407 -10 -122 -65
-395 -92 -460 -7 -18 -6 -14 -21 -65 -12 -42 -25 -57 -83 -93 -84 -51 -197
-81 -329 -87 -95 -3 -193 28 -320 102 -95 56 -236 161 -232 173 1 6 -3 9 -8 8
-6 -2 -37 20 -70 47 -75 63 -368 360 -435 442 -52 63 -80 83 -118 83 -36 -1
-60 -20 -153 -125 -239 -270 -247 -279 -270 -271 -10 3 -30 23 -44 43 -14 20
-30 41 -35 47 -6 6 -53 67 -105 136 -52 68 -99 131 -106 140 -7 8 -65 85 -129
170 -128 170 -160 209 -175 211 -6 1 -16 2 -22 3 -23 4 -62 -25 -91 -64 -92
-129 -307 -372 -501 -566 -320 -319 -546 -406 -753 -288 -59 34 -99 80 -112
128 -16 59 -43 235 -39 260 1 12 -1 26 -5 33 -9 14 -10 298 -2 393 16 187 102
549 126 534 5 -3 6 2 3 10 -7 19 81 229 113 267 16 18 44 34 76 44 80 22 450
99 572 119 17 2 86 13 155 25 106 17 233 32 460 56 25 2 106 7 180 11 74 4
136 8 138 9 5 4 732 -4 772 -8z m-1830 -2853 c19 -2 49 -8 65 -11 17 -3 39 -7
50 -9 11 -2 81 -12 155 -23 75 -11 162 -23 194 -27 65 -6 98 -12 101 -16 1 -2
12 -28 24 -58 13 -30 40 -89 61 -130 33 -66 52 -100 90 -162 6 -11 7 -18 1
-18 -44 0 -348 133 -471 206 -102 60 -237 159 -324 236 -30 27 -31 27 -6 22
14 -2 41 -7 60 -10z m2780 -7 c-75 -69 -185 -149 -335 -244 -90 -57 -425 -203
-466 -203 -6 0 -2 12 9 28 25 35 152 292 152 308 0 13 26 37 44 40 32 4 127
15 171 19 28 3 57 7 65 10 8 2 39 7 69 10 30 4 63 9 75 11 12 3 37 7 56 10 19
3 64 11 100 19 36 7 69 13 75 14 5 0 -1 -9 -15 -22z m-1338 -111 c180 1 331 5
337 9 55 34 -87 -208 -183 -312 -205 -222 -427 -143 -629 224 l-45 82 26 3
c15 2 59 1 97 -3 39 -3 217 -4 397 -3z"/>
<path d="M3940 3387 c-90 -47 -117 -170 -69 -316 26 -79 116 -184 192 -223 53
-27 156 -30 204 -4 45 23 73 82 78 165 15 253 -222 475 -405 378z"/>
</g>
</svg>
